<svg version="1.1" id="Layer_1" xmlns="http://www.w3.org/2000/svg" xmlns:xlink="http://www.w3.org/1999/xlink" x="0px" y="0px"
	 width="100%" viewBox="0 0 200 200" enable-background="new 0 0 200 200" xml:space="preserve">
<path fill="#A9C9E8" opacity="1.000000" stroke="none" 
	d="
M201.000000,39.000000 
	C201.000000,39.750000 201.000000,40.500000 200.743759,41.951481 
	C200.325104,43.625221 200.021347,44.597382 200.020676,45.569756 
	C199.995300,82.301338 199.986679,119.032959 200.038986,155.764481 
	C200.041000,157.176773 200.665543,158.588181 201.000000,160.000000 
	C201.000000,160.750000 201.000000,161.500000 200.744156,162.915985 
	C200.237961,164.584076 199.987610,165.586166 199.373047,166.518097 
	C187.687424,160.833908 176.386292,155.178513 165.038712,149.617889 
	C154.452698,144.430450 143.817322,139.343781 132.989288,133.920258 
	C126.254807,130.322678 119.736221,127.014633 113.214317,123.713142 
	C98.249748,116.137848 83.283554,108.565742 68.597107,100.725937 
	C88.213226,90.703209 107.563438,80.972786 126.867310,71.151283 
	C128.842194,70.146500 130.539429,68.595993 132.722427,67.301987 
	C134.338577,66.940247 135.688934,66.758209 136.843506,66.183090 
	C157.858810,55.714771 178.850586,45.199203 200.139114,34.756794 
	C200.620560,34.879940 200.810287,34.939972 201.000000,35.000000 
	C201.000000,35.750000 201.000000,36.500000 200.886719,37.738220 
	C200.595291,38.520508 200.670822,38.778362 201.000000,39.000000 
z"/>
<path fill="#E52A25" opacity="1.000000" stroke="none" 
	d="
M68.318024,100.992332 
	C83.283554,108.565742 98.249748,116.137848 113.214317,123.713142 
	C119.736221,127.014633 126.254807,130.322678 132.710129,134.129425 
	C106.027679,147.943436 79.392921,161.221771 52.800026,174.583435 
	C40.792358,180.616699 28.868044,186.815842 16.596197,192.971039 
	C15.775794,193.309830 15.265109,193.617325 14.410277,193.981567 
	C10.351198,195.952606 6.636264,197.866928 2.601105,199.819305 
	C1.853920,199.904907 1.426960,199.952454 1.000000,200.000000 
	C1.000000,178.312439 1.000000,156.624878 1.314535,134.316193 
	C9.070136,130.010773 16.535135,126.373901 23.947149,122.632065 
	C38.163601,115.455109 52.349976,108.218559 66.774460,101.050667 
	C67.439400,101.060509 67.878716,101.026421 68.318024,100.992332 
z"/>
<path fill="#39A6E0" opacity="1.000000" stroke="none" 
	d="
M68.597107,100.725937 
	C67.878716,101.026421 67.439400,101.060509 66.569115,100.741508 
	C62.453564,98.472206 58.801289,96.490654 55.078945,94.650864 
	C37.062950,85.746361 19.028141,76.879929 1.000000,68.000000 
	C1.000000,45.666668 1.000000,23.333334 1.623568,1.264891 
	C2.857555,1.957598 3.467975,2.385414 4.393781,2.985219 
	C38.301380,19.877113 71.910263,36.563671 105.474762,53.339027 
	C114.507637,57.853611 123.405609,62.638123 132.365509,67.298721 
	C130.539429,68.595993 128.842194,70.146500 126.867310,71.151283 
	C107.563438,80.972786 88.213226,90.703209 68.597107,100.725937 
z"/>
<path fill="#1C2157" opacity="1.000000" stroke="none" 
	d="
M16.905914,192.939728 
	C28.868044,186.815842 40.792358,180.616699 52.800026,174.583435 
	C79.392921,161.221771 106.027679,147.943436 132.924515,134.421936 
	C143.817322,139.343781 154.452698,144.430450 165.038712,149.617889 
	C176.386292,155.178513 187.687424,160.833908 199.533997,166.717163 
	C200.372772,166.990906 200.686386,166.995453 201.000000,167.000000 
	C201.000000,167.444443 201.000000,167.888901 200.707855,168.965729 
	C200.227448,177.732941 200.039169,185.867767 199.424515,194.001434 
	C196.988098,193.995880 194.978073,193.991455 192.642807,193.735565 
	C190.346542,193.322723 188.375595,193.022186 186.404434,193.020645 
	C150.318573,192.992401 114.232689,193.006836 78.146812,192.997345 
	C57.733177,192.991989 37.319550,192.959824 16.905914,192.939728 
z"/>
<path fill="#F4F3F2" opacity="1.000000" stroke="none" 
	d="
M1.000000,68.468658 
	C19.028141,76.879929 37.062950,85.746361 55.078945,94.650864 
	C58.801289,96.490654 62.453564,98.472206 66.343483,100.697571 
	C52.349976,108.218559 38.163601,115.455109 23.947149,122.632065 
	C16.535135,126.373901 9.070136,130.010773 1.314535,133.847534 
	C1.000000,112.312439 1.000000,90.624878 1.000000,68.468658 
z"/>
<path fill="#A1AAB9" opacity="1.000000" stroke="none" 
	d="
M1.000000,200.500000 
	C1.426960,199.952454 1.853920,199.904907 3.077014,199.873550 
	C69.226616,199.895889 134.580078,199.902023 200.198120,199.954681 
	C200.641800,200.000809 200.820908,200.000412 201.000000,200.000000 
	C199.670807,200.333344 198.341812,200.957306 197.012375,200.958282 
	C131.674942,201.005905 66.337471,201.000000 1.000000,200.500000 
z"/>
<path fill="#5C6489" opacity="1.000000" stroke="none" 
	d="
M4.078394,2.813230 
	C3.467975,2.385414 2.857555,1.957598 2.123568,1.264891 
	C67.354225,1.000000 132.708450,1.000000 198.529388,1.221326 
	C198.996109,1.442651 198.990540,1.885285 198.524078,1.926801 
	C136.005447,1.973328 73.953285,1.968275 11.901164,2.018433 
	C9.293362,2.020541 6.685975,2.536602 4.078394,2.813230 
z"/>
<path fill="#C0D8F0" opacity="1.000000" stroke="none" 
	d="
M201.000000,159.531342 
	C200.665543,158.588181 200.041000,157.176773 200.038986,155.764481 
	C199.986679,119.032959 199.995300,82.301338 200.020676,45.569756 
	C200.021347,44.597382 200.325104,43.625221 200.743759,42.326481 
	C201.000000,81.020897 201.000000,120.041786 201.000000,159.531342 
z"/>
<path fill="#575B81" opacity="1.000000" stroke="none" 
	d="
M198.990540,1.885284 
	C198.990540,1.885285 198.996109,1.442651 198.998047,1.221326 
	C201.409180,0.389231 200.996597,2.101118 200.997269,3.444567 
	C201.002258,13.650603 201.000000,23.856644 201.000000,34.531342 
	C200.810287,34.939972 200.620560,34.879940 200.174286,34.309578 
	C199.944366,25.048826 200.029800,16.297873 199.951111,7.548395 
	C199.934097,5.657964 199.326248,3.772848 198.990540,1.885284 
z"/>
<path fill="#565A82" opacity="1.000000" stroke="none" 
	d="
M201.000000,199.531342 
	C200.820908,200.000412 200.641800,200.000809 200.219330,199.533539 
	C199.934280,197.378082 199.892578,195.690338 199.850891,194.002579 
	C200.039169,185.867767 200.227448,177.732941 200.707855,169.299072 
	C201.000000,179.020889 201.000000,189.041794 201.000000,199.531342 
z"/>
<path fill="#C0D8F0" opacity="1.000000" stroke="none" 
	d="
M201.000000,166.600006 
	C200.686386,166.995453 200.372772,166.990906 199.898224,166.787323 
	C199.987610,165.586166 200.237961,164.584076 200.744156,163.290985 
	C201.000000,164.066666 201.000000,165.133347 201.000000,166.600006 
z"/>
<path fill="#C0D8F0" opacity="1.000000" stroke="none" 
	d="
M201.000000,38.750000 
	C200.670822,38.778362 200.595291,38.520508 200.886719,38.113220 
	C201.000000,38.000000 201.000000,38.500000 201.000000,38.750000 
z"/>
<path fill="#1B2158" opacity="1.000000" stroke="none" 
	d="
M198.524078,1.926801 
	C199.326248,3.772848 199.934097,5.657964 199.951111,7.548395 
	C200.029800,16.297873 199.944366,25.048826 199.882553,34.246468 
	C178.850586,45.199203 157.858810,55.714771 136.843506,66.183090 
	C135.688934,66.758209 134.338577,66.940247 132.722427,67.301987 
	C123.405609,62.638123 114.507637,57.853611 105.474762,53.339027 
	C71.910263,36.563671 38.301380,19.877113 4.393781,2.985219 
	C6.685975,2.536602 9.293362,2.020541 11.901164,2.018433 
	C73.953285,1.968275 136.005447,1.973328 198.524078,1.926801 
z"/>
<path fill="#1D2053" opacity="1.000000" stroke="none" 
	d="
M199.424515,194.001434 
	C199.892578,195.690338 199.934280,197.378082 199.954758,199.487000 
	C134.580078,199.902023 69.226616,199.895889 3.397239,199.835510 
	C6.636264,197.866928 10.351198,195.952606 14.898526,193.998688 
	C74.809959,193.968399 133.888992,193.977707 192.968033,193.987030 
	C194.978073,193.991455 196.988098,193.995880 199.424515,194.001434 
z"/>
<path fill="#1F1F67" opacity="1.000000" stroke="none" 
	d="
M192.642807,193.735565 
	C133.888992,193.977707 74.809959,193.968399 15.242672,193.941956 
	C15.265109,193.617325 15.775794,193.309830 16.596199,192.971039 
	C37.319550,192.959824 57.733177,192.991989 78.146812,192.997345 
	C114.232689,193.006836 150.318573,192.992401 186.404434,193.020645 
	C188.375595,193.022186 190.346542,193.322723 192.642807,193.735565 
z"/>
</svg>